<svg width="66" height="60" viewBox="0 0 66 60" fill="none" xmlns="http://www.w3.org/2000/svg">
<path d="M39.9587 8.09497C47.3005 8.09497 53.2503 14.2408 53.2503 22.845C53.2503 40.0533 35.1253 49.8866 29.0837 53.5741C23.042 49.8866 4.91699 40.0533 4.91699 22.845C4.91699 14.2408 10.9587 8.09497 18.2087 8.09497C22.7037 8.09497 26.667 10.5533 29.0837 13.0116C31.5003 10.5533 35.4637 8.09497 39.9587 8.09497Z" fill="#050794"/>
<path d="M47.875 8.09497C55.2168 8.09497 61.1666 14.2408 61.1666 22.845C61.1666 40.0533 43.0416 49.8866 37 53.5741C30.9583 49.8866 12.8333 40.0533 12.8333 22.845C12.8333 14.2408 18.875 8.09497 26.125 8.09497C30.62 8.09497 34.5833 10.5533 37 13.0116C39.4166 10.5533 43.38 8.09497 47.875 8.09497Z" fill="#FBAF1B" style="mix-blend-mode:multiply"/>
</svg>
