<svg width="36" height="40" viewBox="0 0 36 40" fill="none" xmlns="http://www.w3.org/2000/svg">
<path d="M24.417 14.9447L23.747 12.8533C23.4509 11.9288 22.8029 11.1588 21.9456 10.7126C21.0884 10.2665 20.092 10.1807 19.1758 10.4742C18.2596 10.7677 17.4985 11.4164 17.06 12.2776C16.6215 13.1388 16.5416 14.142 16.8377 15.0665L13.2647 3.91219C12.9686 2.98772 12.3206 2.2177 11.4633 1.77153C10.6061 1.32536 9.60972 1.23958 8.69349 1.53307C7.77726 1.82656 7.01619 2.47528 6.57771 3.33651C6.13924 4.19774 6.05927 5.20094 6.3554 6.12541L13.1274 27.2663L7.22304 21.8552C6.50803 21.2 5.56538 20.8563 4.60246 20.8999C3.63954 20.9435 2.73523 21.3706 2.08847 22.0875C1.4417 22.8043 1.10546 23.7521 1.15372 24.7223C1.20197 25.6925 1.63077 26.6057 2.34578 27.2609C11.8123 37.4306 16.5723 40.5179 24.207 38.0723C26.0217 37.491 27.7031 36.5548 29.1552 35.3171C30.6073 34.0793 31.8017 32.5643 32.6701 30.8586C33.5386 29.1528 34.0641 27.2897 34.2167 25.3756C34.3693 23.4615 34.1459 21.534 33.5594 19.703L31.3263 12.7315C31.0301 11.807 30.3822 11.037 29.5249 10.5908C28.6676 10.1447 27.6713 10.0589 26.755 10.3524C25.8388 10.6459 25.0777 11.2946 24.6393 12.1558C24.2008 13.0171 24.1208 14.0203 24.417 14.9447Z" fill="#FBAF1B" stroke="#050794" stroke-width="2" stroke-linecap="round" stroke-linejoin="round"/>
</svg>
