<svg width="10" height="15" viewBox="0 0 10 15" fill="none" xmlns="http://www.w3.org/2000/svg"><path d="M7.18525 2.82361V9.63971H3.58525V2.82361H7.18525ZM8.53525 0.097168H2.23525C1.48994 0.097168 0.885254 0.707777 0.885254 1.46039V13.275C0.885254 14.0276 1.48994 14.6382 2.23525 14.6382H8.53525C9.28057 14.6382 9.88525 14.0276 9.88525 13.275V1.46039C9.88525 0.707777 9.28057 0.097168 8.53525 0.097168ZM2.23525 13.7294C1.98775 13.7294 1.78525 13.5249 1.78525 13.275V1.46039C1.78525 1.21046 1.98775 1.00598 2.23525 1.00598H8.53525C8.78275 1.00598 8.98525 1.21046 8.98525 1.46039V13.275C8.98525 13.5249 8.78275 13.7294 8.53525 13.7294H2.23525ZM7.74775 1.91479H3.02275C2.83713 1.91479 2.68525 2.06816 2.68525 2.2556V10.2077C2.68525 10.3952 2.83713 10.5485 3.02275 10.5485H7.74775C7.93338 10.5485 8.08525 10.3952 8.08525 10.2077V2.2556C8.08525 2.06816 7.93338 1.91479 7.74775 1.91479ZM6.39775 11.9117H4.37275C4.18713 11.9117 4.03525 12.0651 4.03525 12.2525V12.4798C4.03525 12.6672 4.18713 12.8206 4.37275 12.8206H6.39775C6.58338 12.8206 6.73525 12.6672 6.73525 12.4798V12.2525C6.73525 12.0651 6.58338 11.9117 6.39775 11.9117Z" fill="#1E2027"/></svg>