<svg width="25" height="25" viewBox="0 0 25 25" fill="none" xmlns="http://www.w3.org/2000/svg"><path d="M12.5 2.42627C15.217 2.42627 15.556 2.43627 16.622 2.48627C17.687 2.53627 18.412 2.70327 19.05 2.95127C19.71 3.20527 20.266 3.54927 20.822 4.10427C21.3305 4.60417 21.724 5.20886 21.975 5.87627C22.222 6.51327 22.39 7.23927 22.44 8.30427C22.487 9.37027 22.5 9.70927 22.5 12.4263C22.5 15.1433 22.49 15.4823 22.44 16.5483C22.39 17.6133 22.222 18.3383 21.975 18.9763C21.7247 19.644 21.3311 20.2489 20.822 20.7483C20.322 21.2566 19.7173 21.65 19.05 21.9013C18.413 22.1483 17.687 22.3163 16.622 22.3663C15.556 22.4133 15.217 22.4263 12.5 22.4263C9.783 22.4263 9.444 22.4163 8.378 22.3663C7.313 22.3163 6.588 22.1483 5.95 21.9013C5.28233 21.6507 4.67753 21.2572 4.178 20.7483C3.66941 20.2485 3.27593 19.6437 3.025 18.9763C2.777 18.3393 2.61 17.6133 2.56 16.5483C2.513 15.4823 2.5 15.1433 2.5 12.4263C2.5 9.70927 2.51 9.37027 2.56 8.30427C2.61 7.23827 2.777 6.51427 3.025 5.87627C3.27524 5.20845 3.6688 4.60359 4.178 4.10427C4.67767 3.5955 5.28243 3.202 5.95 2.95127C6.588 2.70327 7.312 2.53627 8.378 2.48627C9.444 2.43927 9.783 2.42627 12.5 2.42627ZM12.5 7.42627C11.1739 7.42627 9.90215 7.95305 8.96447 8.89074C8.02678 9.82842 7.5 11.1002 7.5 12.4263C7.5 13.7524 8.02678 15.0241 8.96447 15.9618C9.90215 16.8995 11.1739 17.4263 12.5 17.4263C13.8261 17.4263 15.0979 16.8995 16.0355 15.9618C16.9732 15.0241 17.5 13.7524 17.5 12.4263C17.5 11.1002 16.9732 9.82842 16.0355 8.89074C15.0979 7.95305 13.8261 7.42627 12.5 7.42627ZM19 7.17627C19 6.84475 18.8683 6.52681 18.6339 6.29239C18.3995 6.05797 18.0815 5.92627 17.75 5.92627C17.4185 5.92627 17.1005 6.05797 16.8661 6.29239C16.6317 6.52681 16.5 6.84475 16.5 7.17627C16.5 7.50779 16.6317 7.82573 16.8661 8.06015C17.1005 8.29457 17.4185 8.42627 17.75 8.42627C18.0815 8.42627 18.3995 8.29457 18.6339 8.06015C18.8683 7.82573 19 7.50779 19 7.17627ZM12.5 9.42627C13.2956 9.42627 14.0587 9.74234 14.6213 10.3049C15.1839 10.8676 15.5 11.6306 15.5 12.4263C15.5 13.2219 15.1839 13.985 14.6213 14.5476C14.0587 15.1102 13.2956 15.4263 12.5 15.4263C11.7044 15.4263 10.9413 15.1102 10.3787 14.5476C9.81607 13.985 9.5 13.2219 9.5 12.4263C9.5 11.6306 9.81607 10.8676 10.3787 10.3049C10.9413 9.74234 11.7044 9.42627 12.5 9.42627Z" fill="#050794"/></svg>