<svg width="13" height="11" viewBox="0 0 13 11" fill="none" xmlns="http://www.w3.org/2000/svg"><path d="M11.7603 0.946777H2.01025C1.38916 0.946777 0.885254 1.4894 0.885254 2.1582V9.42676C0.885254 10.0956 1.38916 10.6382 2.01025 10.6382H11.7603C12.3813 10.6382 12.8853 10.0956 12.8853 9.42676V2.1582C12.8853 1.4894 12.3813 0.946777 11.7603 0.946777ZM2.01025 1.75439H11.7603C11.9665 1.75439 12.1353 1.93611 12.1353 2.1582V3.20306C11.622 3.66996 10.8884 4.31353 8.60557 6.26443C8.20947 6.60262 7.429 7.41781 6.88525 7.40771C6.3415 7.41781 5.55869 6.60262 5.16494 6.26443C2.88213 4.31353 2.14854 3.66996 1.63525 3.20306V2.1582C1.63525 1.93611 1.804 1.75439 2.01025 1.75439ZM11.7603 9.83057H2.01025C1.804 9.83057 1.63525 9.64885 1.63525 9.42676V4.25296C2.16963 4.72491 3.01338 5.45429 4.69853 6.89538C5.179 7.30929 6.02744 8.22038 6.88525 8.21533C7.73838 8.2229 8.57978 7.31938 9.07197 6.89538C10.7571 5.45429 11.6009 4.72491 12.1353 4.25296V9.42676C12.1353 9.64885 11.9665 9.83057 11.7603 9.83057Z" fill="#1E2027"/></svg>